<?xml version="1.0" encoding="utf-8"?>
<!-- Generator: Adobe Illustrator 15.0.0, SVG Export Plug-In . SVG Version: 6.00 Build 0)  -->

<svg version="1.1" id="Layer_1" xmlns="http://www.w3.org/2000/svg" xmlns:xlink="http://www.w3.org/1999/xlink" x="0px" y="0px"
     width="18px" height="18px" viewBox="0 0 18 18" enable-background="new 0 0 18 18" xml:space="preserve">
<g>
    <g fill="#FFFFFF">
        <path d="M9,18c-5,0-9-4-9-9s4-9,9-9s9,4,9,9S14,18,9,18z M9,1.8C5,1.8,1.8,5,1.8,9c0,4,3.2,7.2,7.2,7.2S16.2,13,16.2,9
            C16.2,5,13,1.8,9,1.8z"/>
    </g>
    <circle fill="#247530" cx="9" cy="9" r="8.1"/>
    <polygon fill="#FFFFFF" points="13.6,5.7 12,4.1 8.8,7.3 5.6,4.1 4,5.7 7.2,9 4,12.2 5.7,13.8 8.9,10.6 12.1,13.8 13.6,12.1 
        10.4,8.9    "/>
</g>
</svg>
