<?xml version="1.0" encoding="utf-8"?>
<!-- Generator: Adobe Illustrator 15.0.0, SVG Export Plug-In . SVG Version: 6.00 Build 0)  -->

<svg version="1.1" id="Layer_1" xmlns="http://www.w3.org/2000/svg" xmlns:xlink="http://www.w3.org/1999/xlink" x="0px" y="0px"
     width="18px" height="18px" viewBox="0 0 18 18" enable-background="new 0 0 18 18" xml:space="preserve">
<g>
    <path fill="#00849b" d="M9,17.5c-4.7,0-8.5-3.8-8.5-8.5c0-4.7,3.8-8.5,8.5-8.5c4.7,0,8.5,3.8,8.5,8.5C17.5,13.7,13.7,17.5,9,17.5z"
        />
    <path fill="#ffffff" d="M9,1c4.4,0,8,3.6,8,8s-3.6,8-8,8s-8-3.6-8-8S4.6,1,9,1 M9,0C4,0,0,4,0,9s4,9,9,9s9-4,9-9S14,0,9,0L9,0z"/>
</g>
<polygon fill="#ffffff" points="7.8,9 11.6,5.1 9.9,3.5 4.3,9 9.9,14.5 11.7,12.9 "/>
</svg>